<svg xmlns="http://www.w3.org/2000/svg" width="24" height="24" fill="none" viewBox="0 0 24 24">
    <path fill="#fff" fill-rule="evenodd" d="M21.36 6.717c-3.02-5.23-9.129-7.356-14.387-4.32C1.716 5.431-.699 12.478 2.32 17.71c3.02 5.23 10.68 6.593 15.937 3.558 5.258-3.036 6.123-9.32 3.103-14.55zM10.058 9.2c-.383 0-.694.31-.694.694v1.208c0 .383.31.693.694.693.383 0 .693-.31.693-.693V9.894c0-.383-.31-.694-.693-.694zm4.629 0c-.383 0-.693.31-.693.694v1.208c0 .383.31.693.693.693.383 0 .693-.31.693-.693V9.894c0-.383-.31-.694-.693-.694zm-2.246 5.952c1.639 0 2.954-.694 3.531-1.56.213-.318.644-.404.962-.191.318.212.404.643.192.961-.898 1.345-2.708 2.176-4.685 2.176-1.977 0-3.788-.83-4.685-2.176-.213-.318-.127-.749.191-.961.319-.213.75-.127.962.191.578.866 1.892 1.56 3.532 1.56z" clip-rule="evenodd"/>
</svg>
