<svg xmlns="http://www.w3.org/2000/svg" width="31" height="24" fill="none" viewBox="0 0 31 24">
    <path fill="#fff" fill-rule="evenodd" d="M17.598 9.413c-.377 1.13-.881 2.605-1.383 3.91-.25.653-.505 1.272-.745 1.79-.231.497-.479.963-.726 1.261-.556.67-1.38.867-2.042.857-.34-.005-.673-.064-.966-.163-.242-.083-.505-.211-.715-.403-.442-.277-.817-.688-1.138-1.078-.156-.19-.313-.391-.466-.588l-.058-.074c-.173-.223-.344-.44-.52-.649-.724-.857-1.41-1.404-2.291-1.404-.836 0-1.473.54-2.088 1.527-.302.485-.569 1.03-.836 1.59l-.08.17c-.234.493-.476 1.002-.73 1.432-.86 1.453-2.088 1.8-2.814 1.66L.28 17.8c.006 0 .047.005.121-.007.078-.012.18-.04.3-.1.232-.114.544-.355.84-.855.218-.368.43-.813.67-1.32l.078-.164c.266-.558.564-1.173.916-1.737.69-1.11 1.714-2.224 3.343-2.224 1.583 0 2.651 1.019 3.42 1.93.197.233.384.47.558.694l.058.074c.154.198.298.383.44.556.33.4.59.656.82.787l.1.058.078.085c-.002-.002-.001-.002.002 0 .012.01.067.05.19.091.14.048.32.081.51.084.4.006.712-.117.881-.32.115-.14.295-.45.524-.943.22-.474.46-1.059.706-1.696.49-1.274.985-2.725 1.362-3.852l.002-.007.026-.076c.195-.565.585-1.7 1.242-2.713C18.145 5.1 19.23 4 20.84 4c1.574 0 2.627.96 3.354 1.884.33.42.618.865.864 1.246l.076.118c.28.432.484.73.665.912l.043.042.035.05c1.154 1.606 2.085 1.978 2.718 2.022.601.042 1.084-.18 1.572-.406l.23-.105.602 1.35-.172.08c-.47.224-1.32.627-2.335.556-1.207-.084-2.484-.797-3.783-2.59-.295-.308-.569-.726-.816-1.106l-.074-.116c-.251-.388-.502-.776-.788-1.139-.628-.8-1.3-1.32-2.19-1.32-.855 0-1.552.573-2.135 1.472-.555.856-.895 1.842-1.09 2.41l-.019.053z" clip-rule="evenodd"/>
</svg>
