<svg xmlns="http://www.w3.org/2000/svg" width="250" height="150" fill="none" viewBox="0 0 250 150">
    <defs>
        <linearGradient id="prefix__paint0_linear" x1="122.75" x2="122.75" y1="61.081" y2="102.406" gradientUnits="userSpaceOnUse">
            <stop stop-color="#CAFCFF"/>
            <stop offset="1" stop-color="#27F6FD"/>
        </linearGradient>
        <linearGradient id="prefix__paint1_linear" x1="122.75" x2="122.75" y1="61.081" y2="102.406" gradientUnits="userSpaceOnUse">
            <stop stop-color="#CAFCFF"/>
            <stop offset="1" stop-color="#27F6FD"/>
        </linearGradient>
        <linearGradient id="prefix__paint2_linear" x1="123.939" x2="123.939" y1="27.902" y2="47.902" gradientUnits="userSpaceOnUse">
            <stop stop-color="#CAE8FF"/>
            <stop offset="1" stop-color="#93F2FF"/>
        </linearGradient>
        <linearGradient id="prefix__paint3_linear" x1="123.939" x2="123.939" y1="27.902" y2="47.902" gradientUnits="userSpaceOnUse">
            <stop stop-color="#CAE8FF"/>
            <stop offset="1" stop-color="#93F2FF"/>
        </linearGradient>
        <linearGradient id="prefix__paint4_linear" x1="123.939" x2="123.939" y1="27.902" y2="47.902" gradientUnits="userSpaceOnUse">
            <stop stop-color="#CAE8FF"/>
            <stop offset="1" stop-color="#93F2FF"/>
        </linearGradient>
        <linearGradient id="prefix__paint5_linear" x1="123.939" x2="123.939" y1="27.902" y2="47.902" gradientUnits="userSpaceOnUse">
            <stop stop-color="#CAE8FF"/>
            <stop offset="1" stop-color="#93F2FF"/>
        </linearGradient>
        <linearGradient id="prefix__paint6_linear" x1="123.939" x2="123.939" y1="27.902" y2="47.902" gradientUnits="userSpaceOnUse">
            <stop stop-color="#CAE8FF"/>
            <stop offset="1" stop-color="#93F2FF"/>
        </linearGradient>
        <linearGradient id="prefix__paint7_linear" x1="123.939" x2="123.939" y1="27.902" y2="47.902" gradientUnits="userSpaceOnUse">
            <stop stop-color="#CAE8FF"/>
            <stop offset="1" stop-color="#93F2FF"/>
        </linearGradient>
        <linearGradient id="prefix__paint8_linear" x1="123.939" x2="123.939" y1="27.902" y2="47.902" gradientUnits="userSpaceOnUse">
            <stop stop-color="#CAE8FF"/>
            <stop offset="1" stop-color="#93F2FF"/>
        </linearGradient>
        <linearGradient id="prefix__paint9_linear" x1="123.939" x2="123.939" y1="27.902" y2="47.902" gradientUnits="userSpaceOnUse">
            <stop stop-color="#CAE8FF"/>
            <stop offset="1" stop-color="#93F2FF"/>
        </linearGradient>
        <linearGradient id="prefix__paint10_linear" x1="123.939" x2="123.939" y1="27.902" y2="47.902" gradientUnits="userSpaceOnUse">
            <stop stop-color="#CAE8FF"/>
            <stop offset="1" stop-color="#93F2FF"/>
        </linearGradient>
        <linearGradient id="prefix__paint11_linear" x1="123.939" x2="123.939" y1="27.902" y2="47.902" gradientUnits="userSpaceOnUse">
            <stop stop-color="#CAE8FF"/>
            <stop offset="1" stop-color="#93F2FF"/>
        </linearGradient>
        <linearGradient id="prefix__paint12_linear" x1="44.684" x2="58.098" y1="66.737" y2="66.085" gradientUnits="userSpaceOnUse">
            <stop stop-color="#FFD1F4"/>
            <stop offset="1" stop-color="#FF98DC"/>
        </linearGradient>
        <linearGradient id="prefix__paint13_linear" x1="43.028" x2="46.99" y1="56.308" y2="54.02" gradientUnits="userSpaceOnUse">
            <stop stop-color="#FFD1F4"/>
            <stop offset="1" stop-color="#FF98DC"/>
        </linearGradient>
        <linearGradient id="prefix__paint14_linear" x1="183.773" x2="196.046" y1="93.01" y2="71.587" gradientUnits="userSpaceOnUse">
            <stop stop-color="#BDE3FF"/>
            <stop offset=".859" stop-color="#7EC9FF"/>
        </linearGradient>
        <filter id="prefix__filter0_d" width="7.622" height="7.724" x="182.9" y="77.871" color-interpolation-filters="sRGB" filterUnits="userSpaceOnUse">
            <feFlood flood-opacity="0" result="BackgroundImageFix"/>
            <feColorMatrix in="SourceAlpha" values="0 0 0 0 0 0 0 0 0 0 0 0 0 0 0 0 0 0 127 0"/>
            <feOffset/>
            <feGaussianBlur stdDeviation="1.5"/>
            <feColorMatrix values="0 0 0 0 1 0 0 0 0 1 0 0 0 0 1 0 0 0 0.5 0"/>
            <feBlend in2="BackgroundImageFix" result="effect1_dropShadow"/>
            <feBlend in="SourceGraphic" in2="effect1_dropShadow" result="shape"/>
        </filter>
        <filter id="prefix__filter1_d" width="7.622" height="7.724" x="186.383" y="76.296" color-interpolation-filters="sRGB" filterUnits="userSpaceOnUse">
            <feFlood flood-opacity="0" result="BackgroundImageFix"/>
            <feColorMatrix in="SourceAlpha" values="0 0 0 0 0 0 0 0 0 0 0 0 0 0 0 0 0 0 127 0"/>
            <feOffset/>
            <feGaussianBlur stdDeviation="1.5"/>
            <feColorMatrix values="0 0 0 0 1 0 0 0 0 1 0 0 0 0 1 0 0 0 0.5 0"/>
            <feBlend in2="BackgroundImageFix" result="effect1_dropShadow"/>
            <feBlend in="SourceGraphic" in2="effect1_dropShadow" result="shape"/>
        </filter>
        <filter id="prefix__filter2_d" width="12.887" height="11.036" x="183.386" y="77.706" color-interpolation-filters="sRGB" filterUnits="userSpaceOnUse">
            <feFlood flood-opacity="0" result="BackgroundImageFix"/>
            <feColorMatrix in="SourceAlpha" values="0 0 0 0 0 0 0 0 0 0 0 0 0 0 0 0 0 0 127 0"/>
            <feOffset/>
            <feGaussianBlur stdDeviation="1.5"/>
            <feColorMatrix values="0 0 0 0 1 0 0 0 0 1 0 0 0 0 1 0 0 0 0.5 0"/>
            <feBlend in2="BackgroundImageFix" result="effect1_dropShadow"/>
            <feBlend in="SourceGraphic" in2="effect1_dropShadow" result="shape"/>
        </filter>
        <filter id="prefix__filter3_d" width="7.852" height="7.726" x="48.172" y="61.306" color-interpolation-filters="sRGB" filterUnits="userSpaceOnUse">
            <feFlood flood-opacity="0" result="BackgroundImageFix"/>
            <feColorMatrix in="SourceAlpha" values="0 0 0 0 0 0 0 0 0 0 0 0 0 0 0 0 0 0 127 0"/>
            <feOffset/>
            <feGaussianBlur stdDeviation="1.5"/>
            <feColorMatrix values="0 0 0 0 1 0 0 0 0 1 0 0 0 0 1 0 0 0 0.5 0"/>
            <feBlend in2="BackgroundImageFix" result="effect1_dropShadow"/>
            <feBlend in="SourceGraphic" in2="effect1_dropShadow" result="shape"/>
        </filter>
        <filter id="prefix__filter4_d" width="7.313" height="7.775" x="51.888" y="63.383" color-interpolation-filters="sRGB" filterUnits="userSpaceOnUse">
            <feFlood flood-opacity="0" result="BackgroundImageFix"/>
            <feColorMatrix in="SourceAlpha" values="0 0 0 0 0 0 0 0 0 0 0 0 0 0 0 0 0 0 127 0"/>
            <feOffset/>
            <feGaussianBlur stdDeviation="1.5"/>
            <feColorMatrix values="0 0 0 0 1 0 0 0 0 1 0 0 0 0 1 0 0 0 0.5 0"/>
            <feBlend in2="BackgroundImageFix" result="effect1_dropShadow"/>
            <feBlend in="SourceGraphic" in2="effect1_dropShadow" result="shape"/>
        </filter>
        <filter id="prefix__filter5_d" width="11.322" height="9.901" x="46.384" y="63.767" color-interpolation-filters="sRGB" filterUnits="userSpaceOnUse">
            <feFlood flood-opacity="0" result="BackgroundImageFix"/>
            <feColorMatrix in="SourceAlpha" values="0 0 0 0 0 0 0 0 0 0 0 0 0 0 0 0 0 0 127 0"/>
            <feOffset/>
            <feGaussianBlur stdDeviation="1.5"/>
            <feColorMatrix values="0 0 0 0 1 0 0 0 0 1 0 0 0 0 1 0 0 0 0.5 0"/>
            <feBlend in2="BackgroundImageFix" result="effect1_dropShadow"/>
            <feBlend in="SourceGraphic" in2="effect1_dropShadow" result="shape"/>
        </filter>
    </defs>
    <path fill="url(#prefix__paint0_linear)" d="M96.876 105.947c-.902.401-1.779.476-2.63.226-.802-.201-1.503-.602-2.104-1.203-.601-.601-1.027-1.327-1.277-2.179-.251-.851-.226-1.703.075-2.554.25-.602.6-1.102 1.052-1.503.45-.451.926-.827 1.427-1.127.551-.3 1.102-.576 1.653-.827.551-.3 1.077-.626 1.578-.977 1.653-1.152 3.206-2.454 4.659-3.907 1.452-1.502 2.68-3.13 3.681-4.884-1.502.3-3.08.476-4.733.526-1.603.05-3.206-.075-4.81-.375-1.552-.351-3.03-.902-4.432-1.653-1.353-.752-2.555-1.754-3.607-3.006-.751-.902-1.427-1.828-2.029-2.78-.55-.952-1.001-1.979-1.352-3.08-.651-2.105-.827-4.259-.526-6.463.3-2.204.977-4.257 2.029-6.16 1.102-1.904 2.504-3.557 4.207-4.96 1.704-1.453 3.607-2.455 5.71-3.006 1.854-.45 3.708-.676 5.561-.676 1.904-.05 3.732.2 5.485.752 1.753.5 3.356 1.302 4.809 2.404 1.503 1.102 2.755 2.555 3.757 4.358.651 1.102 1.152 2.304 1.503 3.607.35 1.302.601 2.63.751 3.982.15 1.302.2 2.63.15 3.982 0 1.303-.075 2.58-.225 3.832-.351 3.306-1.102 6.312-2.254 9.017-1.102 2.705-2.53 5.184-4.283 7.438-1.753 2.255-3.782 4.308-6.086 6.162-2.304 1.803-4.86 3.481-7.664 5.034h-.075zM93.87 76.042c1.453 1.302 2.98 2.079 4.583 2.33 1.603.25 3.357.1 5.26-.451.401-.1.877-.276 1.428-.526.551-.3 1.077-.602 1.578-.902.501-.3.926-.551 1.277-.751.351-.2.476-.276.376-.226 0 .1-.025-.025-.075-.376 0-.35-.026-.776-.076-1.277l-.15-1.653c-.05-.55-.1-.977-.15-1.277-.1-.702-.251-1.378-.451-2.029-.15-.651-.401-1.252-.751-1.803-.852-1.353-1.904-2.23-3.156-2.63-1.202-.45-2.455-.526-3.757-.225-1.252.25-2.455.776-3.607 1.577-1.152.802-2.078 1.779-2.78 2.93-.651 1.103-1.002 2.305-1.052 3.607 0 1.253.501 2.48 1.503 3.682z"/>
    <path fill="url(#prefix__paint1_linear)" d="M151.502 82.73c.301-1.503.426-3.282.376-5.335-.05-2.054-.401-4.033-1.052-5.936-.601-1.904-1.553-3.507-2.855-4.81-1.252-1.302-2.981-1.953-5.185-1.953-2.404 0-4.333.777-5.785 2.33-1.453 1.552-2.555 3.456-3.306 5.71-.702 2.204-1.127 4.508-1.278 6.913-.15 2.354-.1 4.358.151 6.01.15 1.103.4 2.255.751 3.457.401 1.202.902 2.304 1.503 3.306.601 1.002 1.352 1.804 2.254 2.405.952.6 2.079.876 3.381.826 1.803-.1 3.306-.5 4.508-1.202 1.253-.751 2.305-1.678 3.156-2.78.852-1.152 1.528-2.455 2.029-3.907.551-1.503.977-3.056 1.277-4.659l.075-.376zm8.641 1.502c-.651 3.657-1.903 7.163-3.757 10.52-1.853 3.306-4.433 5.986-7.739 8.039-1.653.802-3.406 1.328-5.259 1.578-1.854.251-3.682.226-5.486-.075-1.803-.3-3.506-.927-5.109-1.878-1.603-.902-2.98-2.129-4.133-3.682-2.504-3.406-4.132-6.938-4.884-10.595-.701-3.656-.726-7.513-.075-11.57.451-2.856 1.228-5.686 2.33-8.492 1.152-2.805 2.755-5.26 4.808-7.363 1.653-1.703 3.482-2.98 5.486-3.832 2.003-.902 4.032-1.378 6.086-1.428 2.104-.05 4.157.326 6.161 1.127 2.054.802 3.932 2.004 5.635 3.607 1.704 1.603 3.031 3.381 3.983 5.335 1.002 1.903 1.703 3.882 2.104 5.936.4 2.053.576 4.182.526 6.386-.051 2.154-.276 4.283-.677 6.387z"/>
    <path fill="url(#prefix__paint2_linear)" d="M87.303 33.662c-1.1 0-1.92.25-2.464.752-.534.49-.8 1.205-.8 2.144v1.568h5.344v1.024h-5.344v4.752h-1.184v-7.36c0-1.227.384-2.187 1.152-2.88.768-.704 1.85-1.056 3.248-1.056 1.354 0 2.442.293 3.264.88l-.432.976c-.726-.533-1.654-.8-2.784-.8z"/>
    <path fill="url(#prefix__paint3_linear)" d="M95.451 42.974c.523 0 1.003-.09 1.44-.272.448-.192.827-.47 1.136-.832l.64.736c-.373.448-.837.79-1.392 1.024-.555.235-1.168.352-1.84.352-.864 0-1.632-.181-2.304-.544-.672-.373-1.195-.885-1.568-1.536-.373-.65-.56-1.387-.56-2.208 0-.821.176-1.557.528-2.208.363-.65.859-1.157 1.488-1.52.63-.363 1.344-.544 2.144-.544.747 0 1.419.17 2.016.512.608.341 1.088.816 1.44 1.424.363.608.555 1.301.576 2.08l-6.912 1.344c.213.683.597 1.221 1.152 1.616.566.384 1.237.576 2.016.576zm-.288-6.576c-.587 0-1.114.139-1.584.416-.458.267-.821.645-1.088 1.136-.256.48-.384 1.035-.384 1.664 0 .16.005.277.016.352l5.936-1.152c-.128-.704-.453-1.28-.976-1.728-.522-.459-1.162-.688-1.92-.688z"/>
    <path fill="url(#prefix__paint4_linear)" d="M105.107 42.974c.523 0 1.003-.09 1.44-.272.448-.192.827-.47 1.136-.832l.64.736c-.373.448-.837.79-1.392 1.024-.554.235-1.168.352-1.84.352-.864 0-1.632-.181-2.304-.544-.672-.373-1.194-.885-1.568-1.536-.373-.65-.56-1.387-.56-2.208 0-.821.176-1.557.528-2.208.363-.65.859-1.157 1.488-1.52.63-.363 1.344-.544 2.144-.544.747 0 1.419.17 2.016.512.608.341 1.088.816 1.44 1.424.363.608.555 1.301.576 2.08l-6.912 1.344c.214.683.598 1.221 1.152 1.616.566.384 1.238.576 2.016.576zm-.288-6.576c-.586 0-1.114.139-1.584.416-.458.267-.821.645-1.088 1.136-.256.48-.384 1.035-.384 1.664 0 .16.006.277.016.352l5.936-1.152c-.128-.704-.453-1.28-.976-1.728-.522-.459-1.162-.688-1.92-.688z"/>
    <path fill="url(#prefix__paint5_linear)" d="M113.532 43.982c-.758 0-1.344-.213-1.76-.64-.406-.427-.608-1.019-.608-1.776V32.03h1.136v9.44c0 .501.117.885.352 1.152.234.256.586.384 1.056.384.298 0 .554-.048.768-.144l.08.944c-.331.117-.672.176-1.024.176z"/>
    <path fill="url(#prefix__paint6_linear)" d="M128.081 35.486v7.392c0 1.43-.352 2.485-1.056 3.168-.694.693-1.744 1.04-3.152 1.04-.779 0-1.52-.117-2.224-.352-.694-.224-1.259-.539-1.696-.944l.576-.864c.405.363.896.645 1.472.848.586.203 1.2.304 1.84.304 1.066 0 1.85-.25 2.352-.752.501-.49.752-1.259.752-2.304V41.95c-.352.533-.816.939-1.392 1.216-.566.277-1.195.416-1.888.416-.79 0-1.51-.17-2.16-.512-.64-.352-1.147-.837-1.52-1.456-.363-.63-.544-1.339-.544-2.128 0-.79.181-1.493.544-2.112.373-.619.88-1.099 1.52-1.44.64-.341 1.36-.512 2.16-.512.714 0 1.36.144 1.936.432.576.288 1.04.704 1.392 1.248v-1.616h1.088zm-4.304 7.088c.608 0 1.157-.128 1.648-.384.49-.267.869-.635 1.136-1.104.277-.47.416-1.003.416-1.6 0-.597-.139-1.125-.416-1.584-.267-.47-.646-.832-1.136-1.088-.48-.267-1.03-.4-1.648-.4-.608 0-1.158.128-1.648.384-.48.256-.859.619-1.136 1.088-.267.47-.4 1.003-.4 1.6 0 .597.133 1.13.4 1.6.277.47.656.837 1.136 1.104.49.256 1.04.384 1.648.384z"/>
    <path fill="url(#prefix__paint7_linear)" d="M132.345 37.134c.267-.565.662-.992 1.184-1.28.534-.288 1.19-.432 1.968-.432v1.104l-.272-.016c-.885 0-1.578.272-2.08.816-.501.544-.752 1.307-.752 2.288v4.288h-1.136v-8.416h1.088v1.648z"/>
    <path fill="url(#prefix__paint8_linear)" d="M141.076 42.974c.523 0 1.003-.09 1.44-.272.448-.192.827-.47 1.136-.832l.64.736c-.373.448-.837.79-1.392 1.024-.554.235-1.168.352-1.84.352-.864 0-1.632-.181-2.304-.544-.672-.373-1.194-.885-1.568-1.536-.373-.65-.56-1.387-.56-2.208 0-.821.176-1.557.528-2.208.363-.65.859-1.157 1.488-1.52.63-.363 1.344-.544 2.144-.544.747 0 1.419.17 2.016.512.608.341 1.088.816 1.44 1.424.363.608.555 1.301.576 2.08l-6.912 1.344c.214.683.598 1.221 1.152 1.616.566.384 1.238.576 2.016.576zm-.288-6.576c-.586 0-1.114.139-1.584.416-.458.267-.821.645-1.088 1.136-.256.48-.384 1.035-.384 1.664 0 .16.006.277.016.352l5.936-1.152c-.128-.704-.453-1.28-.976-1.728-.522-.459-1.162-.688-1.92-.688z"/>
    <path fill="url(#prefix__paint9_linear)" d="M154.812 35.486v8.416h-1.088v-1.664c-.341.565-.794.997-1.36 1.296-.554.299-1.184.448-1.888.448-.789 0-1.504-.181-2.144-.544-.64-.363-1.141-.87-1.504-1.52-.362-.65-.544-1.392-.544-2.224 0-.832.182-1.573.544-2.224.363-.65.864-1.152 1.504-1.504.64-.363 1.355-.544 2.144-.544.683 0 1.296.144 1.84.432.555.277 1.008.688 1.36 1.232v-1.6h1.136zm-4.24 7.488c.587 0 1.115-.133 1.584-.4.48-.277.854-.667 1.12-1.168.278-.501.416-1.072.416-1.712 0-.64-.138-1.21-.416-1.712-.266-.501-.64-.885-1.12-1.152-.469-.277-.997-.416-1.584-.416-.597 0-1.136.139-1.616.416-.469.267-.842.65-1.12 1.152-.266.501-.4 1.072-.4 1.712 0 .64.134 1.21.4 1.712.278.501.651.89 1.12 1.168.48.267 1.019.4 1.616.4z"/>
    <path fill="url(#prefix__paint10_linear)" d="M162.12 43.39c-.213.192-.474.341-.784.448-.309.096-.634.144-.976.144-.789 0-1.397-.213-1.824-.64-.426-.427-.64-1.03-.64-1.808v-7.888h1.136v1.84h2.544v.96h-2.544v5.024c0 .501.123.885.368 1.152.246.256.603.384 1.072.384.512 0 .928-.144 1.248-.432l.4.816z"/>
    <path fill="url(#prefix__paint11_linear)" d="M164.003 32.702h1.344l-.24 7.84h-.88l-.224-7.84zm.672 11.28c-.234 0-.437-.08-.608-.24-.16-.17-.24-.368-.24-.592 0-.235.08-.427.24-.576.16-.16.363-.24.608-.24.235 0 .432.08.592.24.16.15.24.341.24.576 0 .224-.08.421-.24.592-.16.16-.357.24-.592.24z"/>
    <path fill="#27F6FD" fill-rule="evenodd" d="M83.91 127.915c0-.552.447-1 1-1h73.695c.553 0 1 .448 1 1 0 .553-.447 1-1 1H84.909c-.552 0-1-.447-1-1zM83.91 121.864c0-.552.447-1 1-1h73.695c.553 0 1 .448 1 1 0 .553-.447 1-1 1H84.909c-.552 0-1-.447-1-1z" clip-rule="evenodd"/>
    <circle cx="91.513" cy="60.794" r="1.513" fill="#fff"/>
    <circle cx="133.513" cy="61.608" r="1.513" fill="#fff"/>
    <path fill="#B7FBFF" d="M69.771 88.945c.53-1.386 1.529-2.407 3.025-3.025-1.591-.721-2.597-1.735-3.025-3.026-.467 1.37-1.52 2.352-3.025 3.026 1.386.522 2.4 1.528 3.025 3.025zM195.655 109.367c.53-1.386 1.528-2.408 3.025-3.025-1.592-.721-2.598-1.735-3.025-3.026-.468 1.37-1.521 2.352-3.026 3.026 1.386.522 2.4 1.528 3.026 3.025z"/>
    <path fill="url(#prefix__paint12_linear)" d="M51.487 59.648c3.704-.18 6.43 2.698 6.61 6.402.18 3.704-2.045 6.892-5.75 7.072-3.704.18-7.484-2.716-7.664-6.42-.18-3.705 3.1-6.874 6.804-7.054z"/>
    <path fill="url(#prefix__paint13_linear)" d="M43.984 53.1c1.094-.632 2.369-.184 3 .91.632 1.094.455 2.407-.64 3.038-1.094.632-2.69.344-3.322-.75-.632-1.095-.132-2.566.962-3.198z"/>
    <path fill="#B7FBFF" fill-rule="evenodd" d="M48.218 102.787c-.359-.622-1.026-.817-1.573-.501-.619.357-.859 1.171-.54 1.722.153.265.437.455.789.53.353.074.731.022 1.026-.149.524-.302.673-.954.298-1.602zm.433-.25c-.475-.823-1.433-1.159-2.256-.684-.823.475-1.199 1.582-.724 2.405.475.823 1.676 1.04 2.5.564.822-.475.956-1.462.48-2.285z" clip-rule="evenodd" opacity=".5"/>
    <path fill="#B7FBFF" fill-rule="evenodd" d="M200.548 50.792c-.605-1.047-1.766-1.416-2.739-.854-1.043.602-1.477 1.987-.914 2.963.276.478.776.802 1.367.926.592.126 1.232.04 1.739-.253.949-.548 1.166-1.71.547-2.782zm.433-.25c-.721-1.248-2.174-1.758-3.422-1.037-1.247.72-1.818 2.398-1.097 3.646.72 1.247 2.541 1.576 3.789.856 1.248-.72 1.45-2.218.73-3.465z" clip-rule="evenodd"/>
    <path fill="#B7FBFF" fill-rule="evenodd" d="M174.101 63.162c-.265-.46-.743-.588-1.128-.366-.457.264-.623.86-.399 1.248.107.184.309.323.569.378.263.056.541.016.755-.108.362-.209.484-.665.203-1.152zm.433-.25c-.381-.66-1.15-.93-1.811-.549-.661.382-.963 1.27-.582 1.931.382.66 1.346.835 2.007.453.661-.381.768-1.174.386-1.835z" clip-rule="evenodd" opacity=".5"/>
    <path fill="url(#prefix__paint14_linear)" d="M179.564 75.474c3.429-5.893 10.631-7.239 16.57-3.837 5.939 3.403 8.668 10.002 5.239 15.895-3.429 5.893-11.717 8.848-17.656 5.446-5.939-3.402-7.582-11.611-4.153-17.504z"/>
    <g filter="url(#prefix__filter0_d)">
        <rect width="1.464" height="1.769" fill="#006DBB" rx=".732" transform="matrix(.8677 -.49708 .50292 .86433 185.631 81.332)"/>
    </g>
    <g filter="url(#prefix__filter1_d)">
        <rect width="1.464" height="1.769" fill="#006DBB" rx=".732" transform="matrix(.8677 -.49708 .50292 .86433 189.114 79.757)"/>
    </g>
    <g filter="url(#prefix__filter2_d)">
        <path fill="#006DBB" fill-rule="evenodd" d="M189.967 83.337c.864-.495 1.27-1.213 1.302-1.702.036-.55.513-.964 1.066-.927.553.038.972.514.936 1.063-.087 1.316-1.014 2.56-2.298 3.295-1.284.736-2.833.91-4.025.327-.497-.244-.703-.841-.46-1.335.244-.494.844-.697 1.342-.453.443.217 1.273.227 2.137-.268z" clip-rule="evenodd"/>
    </g>
    <g filter="url(#prefix__filter3_d)">
        <path fill="#852D72" d="M52.367 64.306l.657 1.137-.867.5c-.314.181-.716.074-.897-.24-.181-.314-.074-.716.24-.897l.867-.5z"/>
    </g>
    <g filter="url(#prefix__filter4_d)">
        <path fill="#852D72" d="M54.888 66.383H56.2V67.5c0 .362-.294.656-.657.656-.362 0-.656-.294-.656-.656v-1.118z"/>
    </g>
    <g filter="url(#prefix__filter5_d)">
        <path fill="#852D72" fill-rule="evenodd" d="M52.172 68.596c-.683-.395-1.346-.39-1.706-.212-.372.183-.821.03-1.005-.34-.183-.372-.03-.822.34-1.005.92-.454 2.121-.32 3.12.258 1 .577 1.717 1.55 1.784 2.573.026.413-.287.77-.7.797-.414.026-.77-.287-.797-.7-.026-.401-.354-.977-1.036-1.371z" clip-rule="evenodd"/>
    </g>

</svg>

