<svg xmlns="http://www.w3.org/2000/svg" width="5" height="5" fill="none" viewBox="0 0 24 24">
<path fill="#fff" fill-rule="evenodd" d="M7.962 4.173v.058h8.077v-.058H22.5v-1.5h-6.488c-.025-.154-.068-.302-.127-.442C15.584 1.508 14.871 1 14.04 1H9.962c-.832 0-1.546.508-1.847 1.23-.058.14-.101.289-.127.443H1.5v1.5h6.462zM18.21 18.312l1.12-11.625 1.493.144-1.12 11.625c-.234 2.435-2.28 4.294-4.728 4.294h-5.95c-2.447 0-4.494-1.859-4.728-4.294L3.177 6.83l1.493-.144 1.12 11.625c.16 1.666 1.56 2.938 3.235 2.938h5.95c1.675 0 3.075-1.272 3.235-2.938zM9.5 16V9H11v7H9.5zm4-7v7H15V9h-1.5z" clip-rule="evenodd"/>
</svg>
